<svg width="420" height="520" viewBox="0 0 420 520" xmlns="http://www.w3.org/2000/svg">
  <defs>
    <linearGradient id="leaf" x1="0%" y1="0%" x2="100%" y2="100%">
      <stop offset="0%" stop-color="#c2d7c2"/>
      <stop offset="100%" stop-color="#d89d7a"/>
    </linearGradient>
    <filter id="softBlur" x="-20%" y="-20%" width="140%" height="140%">
      <feGaussianBlur stdDeviation="6" result="blur"/>
      <feBlend in="SourceGraphic" in2="blur" mode="multiply" />
    </filter>
  </defs>
  <g filter="url(#softBlur)" opacity="0.85">
    <path d="M208 500c-40-92-48-184-16-276-15 6-32 28-44 48-18 28-32 60-44 92-12-20-16-46-12-74 5-36 24-74 48-106-15 6-28 0-36-10-12-14-12-34-5-52 9-22 28-42 48-52-24-4-44-22-52-40-12-22-8-46 8-66 12-14 32-26 52-28 22-2 44 6 60 18-4-32 8-66 28-92 14-18 32-32 52-36-36 66-36 132 8 196 36 52 64 112 76 180 8 46 8 90-6 128-14 40-44 70-88 86-44 14-92 12-132-16z" fill="url(#leaf)"/>
  </g>
</svg>

